<svg width="28" height="15" viewBox="0 0 28 15" fill="none" xmlns="http://www.w3.org/2000/svg">
<path d="M10.1318 6.21631C9.05827 6.21631 8.04281 6.01432 7.08545 5.61035C6.12809 5.20085 5.27311 4.58382 4.52051 3.75928C5.03516 3.10075 5.57471 2.56396 6.13916 2.14893C6.70915 1.73389 7.3234 1.42676 7.98193 1.22754C8.646 1.02832 9.38477 0.931478 10.1982 0.937012C11.0062 0.937012 11.7367 1.03662 12.3896 1.23584C13.0426 1.42952 13.6458 1.73112 14.1992 2.14062C14.7581 2.55013 15.2949 3.07031 15.8096 3.70117C15.057 4.53678 14.2048 5.16488 13.2529 5.58545C12.3011 6.00602 11.2607 6.21631 10.1318 6.21631ZM4.66992 11.6035C4.35449 11.4928 4.02799 11.4015 3.69043 11.3296C3.3584 11.2521 2.98486 11.2134 2.56982 11.2134H1.61523C1.12272 11.2134 0.740885 11.1359 0.469727 10.981C0.204102 10.826 0.0712891 10.6047 0.0712891 10.3169C0.0712891 10.1177 0.11556 9.94613 0.204102 9.80225C0.292643 9.65283 0.419922 9.49788 0.585938 9.3374C0.763021 9.16032 0.967773 8.95833 1.2002 8.73145C1.43262 8.49902 1.67611 8.2168 1.93066 7.88477C2.18522 7.55273 2.43424 7.14876 2.67773 6.67285C2.86035 6.31315 3.04574 5.97282 3.23389 5.65186C3.42757 5.32536 3.62126 5.01823 3.81494 4.73047C4.26872 5.20638 4.79443 5.62972 5.39209 6.00049C5.99528 6.37126 6.59017 6.66178 7.17676 6.87207C7.11589 7.41439 6.97201 7.97884 6.74512 8.56543C6.51823 9.14648 6.22493 9.70264 5.86523 10.2339C5.51107 10.7651 5.11263 11.2217 4.66992 11.6035ZM10.1484 13.4629C9.52311 13.4629 8.95312 13.3799 8.43848 13.2139C7.92383 13.0479 7.45345 12.8542 7.02734 12.6328C6.60124 12.4115 6.2028 12.2261 5.83203 12.0767C6.29688 11.6506 6.69808 11.1691 7.03564 10.6323C7.37874 10.09 7.6499 9.52555 7.84912 8.93896C8.05387 8.35238 8.18115 7.76855 8.23096 7.1875C8.54085 7.26497 8.85628 7.32308 9.17725 7.36182C9.49821 7.40055 9.82471 7.41715 10.1567 7.41162C10.8208 7.41162 11.4766 7.33138 12.124 7.1709C12.1628 7.77962 12.2845 8.38005 12.4893 8.97217C12.694 9.55876 12.9707 10.1149 13.3193 10.6406C13.668 11.1663 14.0802 11.634 14.5562 12.0435C14.1799 12.2261 13.7731 12.4281 13.3359 12.6494C12.8988 12.8708 12.4146 13.0617 11.8833 13.2222C11.3576 13.3826 10.7793 13.4629 10.1484 13.4629ZM15.6104 11.562C15.151 11.147 14.7498 10.6794 14.4067 10.1592C14.0692 9.639 13.7952 9.09391 13.585 8.52393C13.3747 7.95394 13.2446 7.39225 13.1948 6.83887C13.549 6.70605 13.9198 6.52897 14.3071 6.30762C14.6945 6.08073 15.0736 5.82617 15.4443 5.54395C15.8206 5.25618 16.1637 4.95182 16.4736 4.63086C16.6452 4.90202 16.8389 5.24788 17.0547 5.66846C17.2705 6.0835 17.4946 6.53451 17.7271 7.02148C17.9595 7.50846 18.1891 7.99821 18.416 8.49072C18.6484 8.9777 18.867 9.42594 19.0718 9.83545C19.2765 10.245 19.4536 10.577 19.603 10.8315C19.437 10.9312 19.2046 11.0086 18.9058 11.064C18.6069 11.1138 18.2943 11.1414 17.9678 11.147C17.5251 11.1746 17.11 11.2272 16.7227 11.3047C16.3408 11.3766 15.9701 11.4624 15.6104 11.562ZM2.42041 14.7993C1.83382 14.7993 1.34684 14.6803 0.959473 14.4424C0.577637 14.2044 0.386719 13.8696 0.386719 13.438C0.386719 13.117 0.508464 12.8735 0.751953 12.7075C1.00098 12.5415 1.27767 12.4281 1.58203 12.3672C1.83659 12.3063 2.07454 12.2593 2.2959 12.2261C2.52279 12.1929 2.74691 12.1431 2.96826 12.0767C3.49951 12.1652 4.04183 12.3285 4.59521 12.5664C5.1486 12.8099 5.66602 13.07 6.14746 13.3467C5.75456 13.7839 5.21777 14.1353 4.53711 14.4009C3.86198 14.6665 3.15641 14.7993 2.42041 14.7993ZM17.9263 14.8159C17.4393 14.8159 16.9523 14.755 16.4653 14.6333C15.9839 14.5116 15.5384 14.3372 15.1289 14.1104C14.7249 13.889 14.3957 13.6261 14.1411 13.3218C14.4344 13.1447 14.7637 12.9676 15.1289 12.7905C15.4997 12.619 15.876 12.4696 16.2578 12.3423C16.6452 12.215 17.0132 12.1265 17.3618 12.0767C17.5998 12.1043 17.8156 12.1265 18.0093 12.1431C18.2085 12.1597 18.4243 12.1763 18.6567 12.1929C18.8836 12.2261 19.0994 12.298 19.3042 12.4087C19.509 12.5138 19.675 12.6522 19.8022 12.8237C19.9295 13.0008 19.9932 13.2083 19.9932 13.4463C19.9932 13.8835 19.7967 14.221 19.4038 14.459C19.0164 14.6969 18.5239 14.8159 17.9263 14.8159ZM20.5244 10.4829C20.2533 9.94613 19.9793 9.40104 19.7026 8.84766C19.4315 8.28874 19.1935 7.81836 18.9888 7.43652C19.1548 7.31478 19.3153 7.17367 19.4702 7.01318C19.6307 6.84717 19.7773 6.63688 19.9102 6.38232C20.0485 6.12777 20.173 5.8068 20.2837 5.41943C20.4497 4.79411 20.6987 4.24626 21.0308 3.77588C21.3683 3.29997 21.7861 2.93197 22.2842 2.67188C22.7878 2.41178 23.3743 2.28174 24.0439 2.28174C24.8187 2.28174 25.4966 2.48649 26.0776 2.896C26.6642 3.3055 27.118 3.87826 27.439 4.61426C27.7599 5.34473 27.9204 6.19694 27.9204 7.1709C27.9204 7.59701 27.7682 7.96777 27.4639 8.2832C27.1595 8.5931 26.7279 8.83382 26.1689 9.00537C25.6156 9.17692 24.9598 9.2627 24.2017 9.2627C23.6759 9.2627 23.2139 9.32633 22.8154 9.45361C22.417 9.58089 22.0379 9.74137 21.6782 9.93506C21.3241 10.1232 20.9395 10.3058 20.5244 10.4829ZM24.2515 6.38232C24.4618 6.38232 24.6444 6.30485 24.7993 6.1499C24.9598 5.99495 25.04 5.80404 25.04 5.57715C25.04 5.36133 24.9598 5.17594 24.7993 5.021C24.6444 4.86051 24.4618 4.78027 24.2515 4.78027C24.0246 4.78027 23.8337 4.86051 23.6787 5.021C23.5238 5.17594 23.4463 5.36133 23.4463 5.57715C23.4463 5.80404 23.5238 5.99495 23.6787 6.1499C23.8337 6.30485 24.0246 6.38232 24.2515 6.38232Z" fill="#3C3C43" fill-opacity="0.6"/>
</svg>
