<svg width="197" height="207" viewBox="0 0 197 207" fill="none" xmlns="http://www.w3.org/2000/svg">
<path d="M114.917 17.25H49.25C44.896 17.25 40.7204 19.0674 37.6417 22.3024C34.563 25.5374 32.8333 29.925 32.8333 34.5V172.5C32.8333 177.075 34.563 181.463 37.6417 184.698C40.7204 187.933 44.896 189.75 49.25 189.75H147.75C152.104 189.75 156.28 187.933 159.358 184.698C162.437 181.463 164.167 177.075 164.167 172.5V69M114.917 17.25L164.167 69M114.917 17.25V69H164.167M131.333 112.125H65.6667M131.333 146.625H65.6667M82.0833 77.625H65.6667" stroke="#1E1E1E" stroke-width="4" stroke-linecap="round" stroke-linejoin="round"/>
</svg>
