<svg width="26" height="20" viewBox="0 0 26 20" fill="none" xmlns="http://www.w3.org/2000/svg">
<path d="M13.606 18.4009C13.2739 18.4009 12.9419 18.3455 12.6099 18.2349C12.2778 18.1242 11.9015 17.8835 11.481 17.5127L8.06934 14.6572C7.9974 14.6572 7.92546 14.66 7.85352 14.6655C7.78158 14.6655 7.7124 14.6655 7.646 14.6655C6.81592 14.6655 6.05225 14.5798 5.35498 14.4082C4.66325 14.2311 4.03792 13.9489 3.479 13.5615C2.92562 13.1742 2.44417 12.6595 2.03467 12.0176C1.50342 12.0231 1.06624 11.8875 0.723145 11.6108C0.380046 11.3286 0.208496 10.9523 0.208496 10.4819C0.208496 10.0558 0.35791 9.71273 0.656738 9.45264C0.9611 9.18701 1.34017 9.05973 1.79395 9.0708C2.17025 7.98617 2.65999 7.08968 3.26318 6.38135C3.86637 5.67301 4.55811 5.1473 5.33838 4.8042C6.12419 4.45557 6.97363 4.28125 7.88672 4.28125C8.58398 4.28125 9.23421 4.36149 9.8374 4.52197C10.4406 4.67692 11.0216 4.89274 11.5806 5.16943C12.145 5.44059 12.7178 5.75326 13.2988 6.10742C13.8854 6.46159 14.508 6.83789 15.1665 7.23633C15.6369 7.50195 16.063 7.73438 16.4448 7.93359C16.8322 8.13281 17.1974 8.23242 17.5405 8.23242C17.7785 8.23242 17.9832 8.18538 18.1548 8.09131C18.3319 7.9917 18.5117 7.85889 18.6943 7.69287L13.9961 4.70459C13.6475 4.48324 13.285 4.23975 12.9087 3.97412C12.5379 3.70296 12.2225 3.43734 11.9624 3.17725C11.7078 2.91162 11.5806 2.6709 11.5806 2.45508C11.5806 2.21159 11.6885 1.99023 11.9043 1.79102C12.1201 1.58626 12.3968 1.40918 12.7344 1.25977C13.0719 1.10482 13.4233 0.988607 13.7886 0.911133C14.1593 0.833659 14.4969 0.794922 14.8013 0.794922C15.5594 0.794922 16.312 0.991374 17.0591 1.38428C17.8062 1.77718 18.4785 2.39421 19.0762 3.23535L21.1514 6.16553C21.8486 6.14893 22.4795 6.2596 23.0439 6.49756C23.6084 6.73551 24.0954 7.07308 24.5049 7.51025C24.9144 7.94743 25.2298 8.45654 25.4512 9.0376C25.6725 9.61865 25.7832 10.2384 25.7832 10.897C25.7832 11.633 25.6642 12.2057 25.4263 12.6152C25.1938 13.0192 24.8424 13.3042 24.3721 13.4702C23.9072 13.6307 23.3289 13.7109 22.6372 13.7109C22.1613 13.7109 21.7241 13.6584 21.3257 13.5532C20.9272 13.4481 20.5537 13.307 20.2051 13.1299C19.8564 12.9528 19.5244 12.7591 19.209 12.5488C18.8493 12.7204 18.52 12.8892 18.2212 13.0552C17.9279 13.2212 17.6484 13.3844 17.3828 13.5449C17.1449 13.5007 16.9069 13.4702 16.6689 13.4536C16.431 13.4315 16.1875 13.4204 15.9385 13.4204C15.6341 13.4204 15.3298 13.4342 15.0254 13.4619C14.7266 13.4896 14.4388 13.5311 14.1621 13.5864L13.5977 12.2832C13 10.9053 12.2142 9.87874 11.2402 9.20361C10.2663 8.52848 9.14567 8.19092 7.87842 8.19092C7.47445 8.19092 7.11198 8.24072 6.79102 8.34033C6.47559 8.43994 6.31787 8.63639 6.31787 8.92969C6.31787 9.1123 6.37598 9.24788 6.49219 9.33643C6.6084 9.42497 6.76058 9.46924 6.94873 9.46924H7.95312C8.61719 9.46924 9.23421 9.59375 9.8042 9.84277C10.3797 10.0918 10.8944 10.4543 11.3481 10.9302C11.8019 11.4061 12.1838 11.9816 12.4937 12.6567L13.4399 14.7485C13.689 14.6987 13.9269 14.6489 14.1538 14.5991C14.3862 14.5438 14.6491 14.4995 14.9424 14.4663C15.2357 14.4276 15.5954 14.4082 16.0215 14.4082C16.8682 14.4082 17.5903 14.5216 18.188 14.7485C18.7856 14.9754 19.2422 15.2853 19.5576 15.6782C19.873 16.0656 20.0308 16.5 20.0308 16.9814C20.0308 17.4297 19.8647 17.7783 19.5327 18.0273C19.2007 18.2764 18.7275 18.4009 18.1133 18.4009C17.8366 18.4009 17.5986 18.376 17.3994 18.3262C17.2002 18.2764 16.9844 18.2293 16.752 18.1851C16.5195 18.1408 16.2179 18.1187 15.8472 18.1187C15.3049 18.1187 14.8677 18.1657 14.5356 18.2598C14.2091 18.3538 13.8993 18.4009 13.606 18.4009ZM7.27246 19.0732C6.38704 19.0732 5.67871 18.9045 5.14746 18.5669C4.62174 18.2349 4.35889 17.7922 4.35889 17.2388C4.35889 16.868 4.4917 16.5719 4.75732 16.3506C5.02848 16.1237 5.39372 16.0103 5.85303 16.0103C6.09098 16.0103 6.3234 16.0213 6.55029 16.0435C6.77718 16.0601 6.9847 16.0794 7.17285 16.1016C7.36654 16.1237 7.52979 16.1348 7.6626 16.1348C7.74561 16.1348 7.82031 16.132 7.88672 16.1265C7.95312 16.1209 8.01676 16.1154 8.07764 16.1099L10.6177 18.2515C10.2137 18.5171 9.74886 18.7191 9.22314 18.8574C8.69743 19.0013 8.0472 19.0732 7.27246 19.0732ZM22.1475 10.5732C22.3633 10.5732 22.5459 10.493 22.6953 10.3325C22.8503 10.1665 22.9277 9.97559 22.9277 9.75977C22.9277 9.54948 22.853 9.36963 22.7036 9.22021C22.5542 9.0708 22.3716 8.99609 22.1558 8.99609C21.9455 8.99609 21.7629 9.07633 21.6079 9.23682C21.4585 9.3973 21.3838 9.58268 21.3838 9.79297C21.3838 10.0033 21.4585 10.1859 21.6079 10.3408C21.7573 10.4958 21.9372 10.5732 22.1475 10.5732Z" fill="#3C3C43" fill-opacity="0.6"/>
</svg>
